<svg width="51" height="51" viewBox="0 0 51 51" fill="none" xmlns="http://www.w3.org/2000/svg">
<path d="M31.2707 11.6044C33.0829 11.958 34.8818 12.7572 36.1873 14.0627C37.4929 15.3683 38.2921 17.1672 38.6457 18.9794M32.4998 3.00024C36.2649 3.41851 39.6529 5.23996 42.3332 7.91691C45.0135 10.5939 46.8269 13.9858 47.2499 17.7502M47.2485 36.1304V42.7919C47.2589 45.3384 44.9692 47.4648 42.3982 47.2329C20.2083 47.2502 3 29.8821 3.01737 7.84116C2.78582 5.28391 4.90171 3.00285 7.44493 3.00046H14.1197C15.1994 2.98985 16.2462 3.37146 17.0649 4.07415C19.3925 6.07191 20.8896 12.8527 20.3136 15.5483C19.8639 17.6528 17.7424 19.1252 16.3001 20.5646C19.4673 26.1238 24.0793 30.7267 29.6495 33.8877C31.0918 32.4482 32.5671 30.3309 34.6758 29.8821C37.3809 29.3063 44.2053 30.8056 46.1951 33.1493C46.9007 33.9805 47.2756 35.0414 47.2485 36.1304Z" stroke="#C0B7E8" stroke-width="6" stroke-linecap="round" stroke-linejoin="round"/>
</svg>
